<svg enable-background="new 0 0 420 80" id="Layer_1" version="1.1" viewBox="0 0 420 80" width="100%"
  x="0px" xmlns="http://www.w3.org/2000/svg" y="0px" xml:space="preserve">
<path d="
M416.000000,81.000000
	C277.789459,81.000000 139.578888,81.000000 1.000000,81.000000
	C1.000000,55.313610 1.000000,29.625463 1.467601,3.468290
	C7.289294,3.000518 12.643388,3.001772 17.999111,3.392399
	C17.992670,5.075543 17.984598,6.369316 17.649923,7.748389
	C16.880205,7.909057 16.437086,7.984425 15.733763,8.061754
	C15.367945,8.369529 15.262332,8.675342 15.083812,9.310331
	C14.992669,10.087234 14.974434,10.534961 14.733635,11.295635
	C10.928482,32.119328 7.345891,52.630074 3.669810,73.676056
	C12.847483,73.676056 20.989771,73.720703 29.131004,73.647713
	C31.449238,73.626930 33.778347,73.363670 36.078606,73.041313
	C46.991295,71.512016 55.299301,63.143177 57.177242,51.649044
	C57.857204,49.167099 58.405300,47.036827 59.137440,45.194626
	C61.733513,48.023636 64.145538,50.564564 66.535706,53.519356
	C66.537773,55.297871 66.561699,56.662525 66.523331,58.393280
	C68.128746,69.232796 72.602188,73.536423 83.104980,74.549011
	C85.915604,74.819977 88.779633,74.944061 91.590034,74.738190
	C102.414742,73.945221 112.243904,70.118919 115.430756,59.119419
	C118.822548,47.412563 120.573021,35.102329 121.749290,22.930798
	C122.422806,15.961530 117.937737,10.612037 110.796448,8.739627
	C106.977821,7.738403 102.941994,7.565557 99.033920,6.672032
	C99.377426,5.218607 99.691193,4.112013 100.473297,3.003930
	C145.294830,3.001769 189.648026,3.001097 233.964447,3.354946
	C233.255417,5.214413 232.583145,6.719358 231.457123,8.122988
	C222.523041,7.972628 214.038055,8.070580 205.564789,7.800884
	C202.258881,7.695661 200.980621,9.030330 199.961304,11.988276
	C195.964096,23.587729 191.644699,35.075676 187.524460,46.633369
	C184.376465,55.463772 181.348175,64.336861 178.101242,73.666191
	C180.189621,73.666191 181.508926,73.661034 182.828171,73.667000
	C194.827789,73.721245 194.775970,73.701614 199.178207,62.404995
	C199.676514,61.126312 201.086868,59.409134 202.203079,59.307350
	C206.286713,58.934940 210.424835,59.159943 215.067490,59.159943
	C215.067490,64.196327 215.067490,68.731438 215.067490,73.254486
	C220.988159,73.254486 226.362244,73.254486 232.046875,73.254486
	C232.046875,54.563942 232.046875,36.283707 232.444794,18.002499
	C233.499344,18.041368 234.204041,17.939842 234.804764,18.144112
	C238.535522,19.412710 241.715820,18.596828 243.781586,15.259154
	C245.804855,11.990133 245.711685,8.754842 242.543655,5.949316
	C241.767502,5.261961 241.500885,3.999231 241.468658,3.000790
	C287.290314,3.001698 332.643341,3.002843 377.997711,3.400675
	C377.617371,5.218575 377.235626,6.639790 376.399323,8.003391
	C370.532074,7.945780 365.119385,7.945780 359.600525,7.945780
	C355.706848,30.104151 351.927277,51.612949 348.047913,73.689713
	C352.025116,73.689713 355.519135,73.390770 358.940369,73.762260
	C363.653290,74.274017 365.210419,72.250305 365.801422,67.786240
	C366.986176,58.837719 368.764160,49.967739 370.428467,40.303814
	C371.653290,41.695663 372.257965,42.382771 372.891754,43.440685
	C373.649963,45.873405 374.379028,47.935310 375.095093,50.378563
	C377.510803,58.416649 379.939514,66.073387 382.349335,73.670670
	C384.386444,73.670670 385.710114,73.667160 387.033813,73.671219
	C399.707855,73.710114 399.707855,73.710480 400.922913,60.685776
	C401.284760,59.580971 401.566925,58.784538 402.216949,57.961491
	C406.834442,55.301430 411.084106,52.667988 416.000000,49.621681
	C416.000000,59.966843 416.000000,70.483421 416.000000,81.000000
M282.213043,34.655212
	C281.341461,35.772472 280.469879,36.889736 278.979279,38.800499
	C276.095673,29.320904 273.551361,20.604679 270.722961,11.981632
	C270.210999,10.420771 268.630981,8.188280 267.377594,8.072823
	C262.449890,7.618905 257.455719,7.886941 252.167267,7.886941
	C248.304504,29.875065 244.505264,51.501583 240.610718,73.670685
	C244.274994,73.670685 246.919235,73.670738 249.563461,73.670677
	C257.072815,73.670509 257.102631,73.676117 258.513672,66.191841
	C259.098633,63.089115 259.468872,59.946236 260.036438,56.839821
	C261.101959,51.007767 262.240021,45.188957 263.347931,39.364639
	C265.744507,44.203411 266.855682,49.050724 268.505127,53.707359
	C269.166382,55.574123 271.094208,58.461128 272.302826,58.391907
	C276.049469,58.177334 280.562347,60.903244 283.501160,55.855946
	C286.801208,50.188271 290.640350,44.834503 294.244965,39.344170
	C294.545654,39.467834 294.846344,39.591496 295.147034,39.715157
	C293.210602,50.886341 291.274200,62.057522 289.261200,73.670586
	C293.478027,73.670586 297.140991,73.430534 300.758118,73.734901
	C304.754333,74.071175 306.195892,72.511665 306.815033,68.582306
	C308.833191,55.774738 311.306335,43.039413 313.542419,30.265448
	C314.816193,22.988766 315.969330,15.690959 317.264679,7.872008
	C312.165009,7.872008 307.831207,7.566822 303.575073,8.009076
	C301.634979,8.210667 299.197937,9.427686 298.102203,10.974577
	C292.749054,18.531782 287.772278,26.355627 282.213043,34.655212
M136.129166,11.555503
	C132.527985,32.108723 128.926804,52.661938 125.246468,73.666962
	C129.315140,73.666962 132.836533,73.311386 136.254715,73.753639
	C140.912842,74.356331 142.294250,72.092743 142.822372,68.047104
	C143.438797,63.325138 144.478287,58.658401 145.389740,53.663498
	C149.274704,53.663498 152.755234,53.769234 156.227478,53.644600
	C169.048737,53.184387 178.345810,46.506203 180.494354,36.140533
	C181.235428,32.565186 181.679688,28.922775 182.140121,25.295841
	C183.470963,14.812450 178.407120,8.425859 168.009613,8.054964
	C158.693436,7.722642 149.356308,7.807030 140.034561,8.001587
	C138.766327,8.028057 137.533752,9.762253 136.129166,11.555503
M326.841309,27.219770
	C324.154449,42.512703 321.467590,57.805637 318.680573,73.668709
	C323.849609,73.668709 328.182587,73.953918 332.435486,73.495750
	C333.719513,73.357437 335.549835,71.304878 335.824707,69.877754
	C338.275238,57.155354 340.453217,44.380074 342.669861,31.613138
	C344.016541,23.856823 345.289703,16.087749 346.672272,7.870655
	C341.764771,7.870655 337.598206,7.599779 333.502686,8.020684
	C332.109131,8.163902 330.073303,9.846108 329.744629,11.174797
	C328.510925,16.161966 327.861206,21.293585 326.841309,27.219770
z" fill="#FFFEFE" opacity="1.000000"
  stroke="none"/>
  <path d="
M416.375000,81.000000
	C416.000000,70.483421 416.000000,59.966843 416.000000,49.621681
	C411.084106,52.667988 406.834442,55.301430 402.188049,57.543198
	C403.089081,50.067341 404.386871,42.983162 406.166260,35.929424
	C408.808167,35.968781 410.999329,36.194244 413.115356,35.892666
	C414.130310,35.748013 415.793762,34.632004 415.816986,33.912441
	C416.027618,27.388170 415.940430,20.854282 415.940430,14.174802
	C413.049377,14.529858 411.108551,14.768217 409.186523,14.609255
	C409.490997,12.297664 409.776611,10.383394 410.149658,7.883095
	C408.005951,7.883095 406.381683,7.887337 404.757385,7.882408
	C394.070526,7.849982 394.025238,7.840769 392.048676,18.291258
	C390.709320,25.372976 389.519440,32.482983 388.038818,40.844807
	C385.431763,33.795956 383.330902,28.115711 381.204346,22.066555
	C379.737091,17.152100 378.295502,12.606557 376.853882,8.061008
	C377.235626,6.639790 377.617371,5.218575 378.466797,3.399361
	C385.386688,3.000548 391.842194,2.869176 398.290070,3.035290
	C404.863983,3.204650 411.430328,3.666491 418.296692,4.294509
	C418.728973,11.960644 418.762482,19.337044 419.087036,26.700605
	C419.151306,28.159004 420.333405,29.568138 421.000000,30.999996
	C421.000000,36.022091 421.000000,41.044186 420.603394,46.623924
	C419.804504,48.840092 419.073456,50.494812 419.054230,52.157757
	C418.943146,61.770763 419.000000,71.385712 419.000000,81.000000
	C418.250000,81.000000 417.500000,81.000000 416.375000,81.000000
z" fill="#FAF9F8" opacity="1.000000"
    stroke="none"/>
  <path d="
M418.000000,4.000276
	C411.430328,3.666491 404.863983,3.204650 398.290070,3.035290
	C391.842194,2.869176 385.386688,3.000548 378.465424,3.002674
	C332.643341,3.002843 287.290314,3.001698 241.031189,3.000178
	C238.083786,3.000010 236.042511,3.000218 234.001221,3.000425
	C189.648026,3.001097 145.294830,3.001769 100.004089,3.002148
	C86.375916,3.003549 73.685295,3.005243 60.526623,3.004698
	C50.706577,3.002702 41.354595,3.002946 31.537790,3.002314
	C26.714474,3.001968 22.355978,3.002497 17.997480,3.003026
	C12.643388,3.001772 7.289294,3.000518 1.467601,2.999632
	C1.332288,2.333333 1.545802,1.216221 2.020849,1.090959
	C3.110533,0.803628 4.327760,1.000000 5.493207,1.000000
	C142.683029,1.000000 279.872864,1.000000 417.530151,1.375029
	C417.998413,2.500130 417.999207,3.250203 418.000000,4.000276
z" fill="#F4F4F5" opacity="1.000000"
    stroke="none"/>
  <path d="
M419.500000,81.000000
	C419.000000,71.385712 418.943146,61.770763 419.054230,52.157757
	C419.073456,50.494812 419.804504,48.840092 420.603394,47.090782
	C421.000000,57.500000 421.022644,68.000145 420.956726,78.499725
	C420.951508,79.335114 420.333313,80.166664 419.500000,81.000000
z" fill="#FFFEFE" opacity="1.000000"
    stroke="none"/>
  <path d="
M418.296722,4.294509
	C417.999207,3.250203 417.998413,2.500130 417.998810,1.375029
	C418.986542,1.000000 419.973083,1.000000 421.000000,1.000000
	C421.000000,10.687532 421.000000,20.375109 421.000000,30.531338
	C420.333405,29.568138 419.151306,28.159004 419.087036,26.700605
	C418.762482,19.337044 418.728973,11.960644 418.296722,4.294509
z" fill="#FFFEFE" opacity="1.000000"
    stroke="none"/>
  <path d="
M282.437744,34.370193
	C287.772278,26.355627 292.749054,18.531782 298.102203,10.974577
	C299.197937,9.427686 301.634979,8.210667 303.575073,8.009076
	C307.831207,7.566822 312.165009,7.872008 317.264679,7.872008
	C315.969330,15.690959 314.816193,22.988766 313.542419,30.265448
	C311.306335,43.039413 308.833191,55.774738 306.815033,68.582306
	C306.195892,72.511665 304.754333,74.071175 300.758118,73.734901
	C297.140991,73.430534 293.478027,73.670586 289.261200,73.670586
	C291.274200,62.057522 293.210602,50.886341 295.147034,39.715157
	C294.846344,39.591496 294.545654,39.467834 294.244965,39.344170
	C290.640350,44.834503 286.801208,50.188271 283.501160,55.855946
	C280.562347,60.903244 276.049469,58.177334 272.302826,58.391907
	C271.094208,58.461128 269.166382,55.574123 268.505127,53.707359
	C266.855682,49.050724 265.744507,44.203411 263.347931,39.364639
	C262.240021,45.188957 261.101959,51.007767 260.036438,56.839821
	C259.468872,59.946236 259.098633,63.089115 258.513672,66.191841
	C257.102631,73.676117 257.072815,73.670509 249.563461,73.670677
	C246.919235,73.670738 244.274994,73.670685 240.610718,73.670685
	C244.505264,51.501583 248.304504,29.875065 252.167267,7.886941
	C257.455719,7.886941 262.449890,7.618905 267.377594,8.072823
	C268.630981,8.188280 270.210999,10.420771 270.722961,11.981632
	C273.551361,20.604679 276.095673,29.320904 278.979279,38.800499
	C280.469879,36.889736 281.341461,35.772472 282.437744,34.370193
z" fill="#E0984C" opacity="1.000000"
    stroke="none"/>
  <path d="
M232.046875,18.003468
	C232.046875,36.283707 232.046875,54.563942 232.046875,73.254486
	C226.362244,73.254486 220.988159,73.254486 215.067490,73.254486
	C215.067490,68.731438 215.067490,64.196327 215.067490,59.159943
	C210.424835,59.159943 206.286713,58.934940 202.203079,59.307350
	C201.086868,59.409134 199.676514,61.126312 199.178207,62.404995
	C194.775970,73.701614 194.827789,73.721245 182.828171,73.667000
	C181.508926,73.661034 180.189621,73.666191 178.101242,73.666191
	C181.348175,64.336861 184.376465,55.463772 187.524460,46.633369
	C191.644699,35.075676 195.964096,23.587729 199.961304,11.988276
	C200.980621,9.030330 202.258881,7.695661 205.564789,7.800884
	C214.038055,8.070580 222.523041,7.972628 231.440186,8.560232
	C231.933640,12.067018 231.990250,15.035243 232.046875,18.003468
M214.180939,46.967209
	C214.691696,46.619518 215.643814,46.277138 215.648087,45.923347
	C215.734863,38.714085 215.713226,31.503517 215.713226,23.215698
	C213.835052,24.087416 210.914932,24.505201 210.417999,25.831146
	C207.890564,32.574963 205.990646,39.553951 203.700455,47.005505
	C207.352188,47.005505 210.307358,47.005505 214.180939,46.967209
z" fill="#E0974B" opacity="1.000000"
    stroke="none"/>
  <path d="
M136.206909,11.130625
	C137.533752,9.762253 138.766327,8.028057 140.034561,8.001587
	C149.356308,7.807030 158.693436,7.722642 168.009613,8.054964
	C178.407120,8.425859 183.470963,14.812450 182.140121,25.295841
	C181.679688,28.922775 181.235428,32.565186 180.494354,36.140533
	C178.345810,46.506203 169.048737,53.184387 156.227478,53.644600
	C152.755234,53.769234 149.274704,53.663498 145.389740,53.663498
	C144.478287,58.658401 143.438797,63.325138 142.822372,68.047104
	C142.294250,72.092743 140.912842,74.356331 136.254715,73.753639
	C132.836533,73.311386 129.315140,73.666962 125.246468,73.666962
	C128.926804,52.661938 132.527985,32.108723 136.206909,11.130625
M148.222778,38.409954
	C150.964630,38.641880 153.714981,39.138897 156.446594,39.051392
	C162.417603,38.860123 165.359192,34.863884 165.133621,27.679722
	C164.993057,23.203140 163.262756,22.034611 156.698029,21.997868
	C154.759323,21.987017 152.820526,21.996195 150.640869,21.996195
	C149.730637,27.481890 148.897095,32.505379 148.222778,38.409954
z" fill="#E0984B" opacity="1.000000"
    stroke="none"/>
  <path d="
M99.004189,7.018864
	C102.941994,7.565557 106.977821,7.738403 110.796448,8.739627
	C117.937737,10.612037 122.422806,15.961530 121.749290,22.930798
	C120.573021,35.102329 118.822548,47.412563 115.430756,59.119419
	C112.243904,70.118919 102.414742,73.945221 91.590034,74.738190
	C88.779633,74.944061 85.915604,74.819977 83.104980,74.549011
	C72.602188,73.536423 68.128746,69.232796 66.852188,58.460987
	C69.441399,58.913071 71.617783,60.203972 73.842323,60.293114
	C77.605476,60.443913 81.399078,59.834869 85.550491,59.676414
	C92.047203,63.218182 99.728935,57.899525 100.767815,53.366039
	C102.482330,45.884289 104.107895,38.333363 104.981285,30.720987
	C105.906914,22.653381 102.117043,20.001814 93.745750,22.150517
	C93.322174,22.025734 93.159546,21.954411 92.956734,21.546978
	C91.754120,19.731466 90.591698,18.252066 90.309502,17.892921
	C93.075661,14.206800 95.540405,10.922338 98.181351,7.546387
	C98.627785,7.390668 98.843330,7.245323 99.004189,7.018864
z" fill="#E0974B" opacity="1.000000"
    stroke="none"/>
  <path d="
M14.956198,10.982687
	C14.974434,10.534961 14.992669,10.087234 15.268528,9.202257
	C15.753436,8.577270 15.909375,8.342197 15.993968,8.059792
	C16.437086,7.984425 16.880205,7.909057 18.112957,7.837027
	C22.052149,7.857340 25.203478,7.812725 28.350925,7.903140
	C36.909122,8.148986 45.635258,6.753414 54.083801,10.656657
	C60.746830,14.876250 61.530231,21.261747 61.371094,28.374340
	C60.455330,34.150852 59.704365,39.528702 58.953396,44.906551
	C58.405300,47.036827 57.857204,49.167099 56.835716,51.696083
	C51.715191,56.570091 46.918922,61.054585 40.174450,61.635139
	C37.871799,61.833344 35.403145,60.103024 33.356396,59.137600
	C38.535877,57.432892 40.821564,53.950466 41.233082,48.677471
	C41.507580,47.232445 41.694244,46.119434 42.014160,44.619602
	C42.478256,41.491787 42.809097,38.750793 43.331039,35.676422
	C43.668072,33.563972 43.813995,31.784906 44.012169,29.625595
	C43.763306,23.406017 38.550159,20.738918 29.006716,22.502304
	C28.402071,26.260160 27.778101,30.138134 27.075880,34.396790
	C26.904114,35.805317 26.810600,36.833160 26.495003,38.172245
	C25.192734,44.322735 24.112549,50.161980 22.682682,55.968021
	C8.402715,43.782112 12.257815,31.626835 23.476496,19.149466
	C17.812431,19.420498 15.516709,17.331385 15.886598,12.628914
	C15.927588,12.107790 15.282889,11.532732 14.956198,10.982687
z" fill="#DC9448" opacity="1.000000"
    stroke="none"/>
  <path d="
M376.399353,8.003397
	C378.295502,12.606557 379.737091,17.152100 381.035217,22.413109
	C376.248779,27.022354 373.888885,31.927658 373.939301,38.058819
	C373.953033,39.726105 373.241364,41.399361 372.862610,43.069878
	C372.257965,42.382771 371.653290,41.695663 370.428467,40.303814
	C368.764160,49.967739 366.986176,58.837719 365.801422,67.786240
	C365.210419,72.250305 363.653290,74.274017 358.940369,73.762260
	C355.519135,73.390770 352.025116,73.689713 348.047913,73.689713
	C351.927277,51.612949 355.706848,30.104151 359.600525,7.945780
	C365.119385,7.945780 370.532074,7.945780 376.399353,8.003397
z" fill="#E0984C" opacity="1.000000"
    stroke="none"/>
  <path d="
M372.891754,43.440689
	C373.241364,41.399361 373.953033,39.726105 373.939301,38.058819
	C373.888885,31.927658 376.248779,27.022354 381.060852,22.782021
	C383.330902,28.115711 385.431763,33.795956 388.038818,40.844807
	C389.519440,32.482983 390.709320,25.372976 392.048676,18.291258
	C394.025238,7.840769 394.070526,7.849982 404.757385,7.882408
	C406.381683,7.887337 408.005951,7.883095 410.149658,7.883095
	C409.776611,10.383394 409.490997,12.297664 409.096741,15.011152
	C408.611206,18.541515 408.234283,21.272659 407.689240,24.348713
	C407.197205,26.742096 406.873260,28.790573 406.341492,31.146931
	C405.983978,32.936203 405.834320,34.417591 405.684662,35.898983
	C404.386871,42.983162 403.089081,50.067341 401.820190,57.569817
	C401.566925,58.784538 401.284760,59.580971 400.480103,60.688015
	C390.704193,61.493126 382.707550,59.184792 377.254700,50.992413
	C376.881989,50.432487 375.839203,50.318562 375.108093,49.997215
	C374.379028,47.935310 373.649963,45.873405 372.891754,43.440689
z" fill="#DC9449" opacity="1.000000"
    stroke="none"/>
  <path d="
M326.916962,26.795420
	C327.861206,21.293585 328.510925,16.161966 329.744629,11.174797
	C330.073303,9.846108 332.109131,8.163902 333.502686,8.020684
	C337.598206,7.599779 341.764771,7.870655 346.672272,7.870655
	C345.289703,16.087749 344.016541,23.856823 342.669861,31.613138
	C340.453217,44.380074 338.275238,57.155354 335.824707,69.877754
	C335.549835,71.304878 333.719513,73.357437 332.435486,73.495750
	C328.182587,73.953918 323.849609,73.668709 318.680573,73.668709
	C321.467590,57.805637 324.154449,42.512703 326.916962,26.795420
z" fill="#E0994D" opacity="1.000000"
    stroke="none"/>
  <path d="
M33.010338,59.253860
	C35.403145,60.103024 37.871799,61.833344 40.174450,61.635139
	C46.918922,61.054585 51.715191,56.570091 56.703850,52.047752
	C55.299301,63.143177 46.991295,71.512016 36.078606,73.041313
	C33.778347,73.363670 31.449238,73.626930 29.131004,73.647713
	C20.989771,73.720703 12.847483,73.676056 3.669810,73.676056
	C7.345891,52.630074 10.928482,32.119328 14.733635,11.295635
	C15.282889,11.532732 15.927588,12.107790 15.886598,12.628914
	C15.516709,17.331385 17.812431,19.420498 23.476496,19.149466
	C12.257815,31.626835 8.402715,43.782112 22.695683,56.403244
	C23.952332,57.626797 24.771244,58.890747 25.755196,59.035889
	C28.132563,59.386589 30.586983,59.214928 33.010338,59.253860
z" fill="#E0994D" opacity="1.000000"
    stroke="none"/>
  <path d="
M98.005150,7.637877
	C95.540405,10.922338 93.075661,14.206800 90.309502,17.892921
	C90.591698,18.252066 91.754120,19.731466 92.644775,21.693390
	C90.360214,25.880112 87.717308,29.388538 86.490555,33.336960
	C84.875725,38.534496 84.140480,44.050007 83.491318,49.484261
	C83.160591,52.252838 83.844658,55.142635 84.202057,58.179924
	C84.616028,58.769905 84.897957,59.157597 85.179878,59.545288
	C81.399078,59.834869 77.605476,60.443913 73.842323,60.293114
	C71.617783,60.203972 69.441399,58.913071 66.914490,58.094879
	C66.561699,56.662525 66.537773,55.297871 66.668640,53.176872
	C68.762566,42.604687 70.701683,32.788853 72.816048,22.666016
	C74.078857,20.364048 75.166412,18.369085 76.559769,16.220865
	C82.666451,10.133941 89.752342,7.422755 98.005150,7.637877
z" fill="#DD9448" opacity="1.000000"
    stroke="none"/>
  <path d="
M375.095093,50.378563
	C375.839203,50.318562 376.881989,50.432487 377.254700,50.992413
	C382.707550,59.184792 390.704193,61.493126 400.400421,60.996384
	C399.707855,73.710480 399.707855,73.710114 387.033813,73.671219
	C385.710114,73.667160 384.386444,73.670670 382.349335,73.670670
	C379.939514,66.073387 377.510803,58.416649 375.095093,50.378563
z" fill="#E0984C" opacity="1.000000"
    stroke="none"/>
  <path d="
M98.181351,7.546388
	C89.752342,7.422755 82.666451,10.133941 76.343079,15.904947
	C69.744034,12.818007 62.956291,10.721653 60.994682,3.006937
	C73.685295,3.005243 86.375916,3.003549 99.535744,3.003638
	C99.691193,4.112013 99.377426,5.218607 99.033920,6.672032
	C98.843330,7.245323 98.627785,7.390668 98.181351,7.546388
z" fill="#FAF9F8" opacity="1.000000"
    stroke="none"/>
  <path d="
M72.640808,22.973022
	C70.701683,32.788853 68.762566,42.604687 66.690506,52.763008
	C64.145538,50.564564 61.733513,48.023636 59.137440,45.194626
	C59.704365,39.528702 60.455330,34.150852 61.698196,28.366812
	C65.673668,26.298086 69.157234,24.635555 72.640808,22.973022
z" fill="#F8F4EF" opacity="1.000000"
    stroke="none"/>
  <path d="
M232.444794,18.002499
	C231.990250,15.035243 231.933640,12.067018 231.893951,8.661549
	C232.583145,6.719358 233.255417,5.214413 233.964447,3.354946
	C236.042511,3.000218 238.083786,3.000010 240.562531,3.000415
	C241.500885,3.999231 241.767502,5.261961 242.543655,5.949316
	C245.711685,8.754842 245.804855,11.990133 243.781586,15.259154
	C241.715820,18.596828 238.535522,19.412710 234.804764,18.144112
	C234.204041,17.939842 233.499344,18.041368 232.444794,18.002499
z" fill="#FAF8F5" opacity="1.000000"
    stroke="none"/>
  <path d="
M53.852669,10.437271
	C45.635258,6.753414 36.909122,8.148986 28.350925,7.903140
	C25.203478,7.812725 22.052149,7.857340 18.439558,7.751725
	C17.984598,6.369316 17.992670,5.075543 17.999111,3.392399
	C22.355978,3.002497 26.714474,3.001968 31.603720,3.375374
	C35.144485,4.431874 38.126888,5.436691 41.173027,5.697691
	C43.729549,5.916741 46.355152,5.142684 48.959564,5.034555
	C52.633011,4.882042 54.610310,6.474037 53.852669,10.437271
z" fill="#FAF8F5" opacity="1.000000"
    stroke="none"/>
  <path d="
M15.733763,8.061754
	C15.909375,8.342197 15.753436,8.577270 15.341434,8.873080
	C15.262332,8.675342 15.367945,8.369529 15.733763,8.061754
z" fill="#E0994D" opacity="1.000000"
    stroke="none"/>
  <path d="
M406.166260,35.929424
	C405.834320,34.417591 405.983978,32.936203 406.756409,31.188951
	C408.899017,29.605850 410.418854,28.288612 411.938690,26.971367
	C410.578247,25.982174 409.217804,24.992989 407.857361,24.003803
	C408.234283,21.272659 408.611206,18.541515 409.077911,15.408474
	C411.108551,14.768217 413.049377,14.529858 415.940430,14.174802
	C415.940430,20.854282 416.027618,27.388170 415.816986,33.912441
	C415.793762,34.632004 414.130310,35.748013 413.115356,35.892666
	C410.999329,36.194244 408.808167,35.968781 406.166260,35.929424
z" fill="#FEFDFD" opacity="1.000000"
    stroke="none"/>
  <path d="
M54.083801,10.656657
	C54.610310,6.474037 52.633011,4.882042 48.959564,5.034555
	C46.355152,5.142684 43.729549,5.916741 41.173027,5.697691
	C38.126888,5.436691 35.144485,4.431874 32.068539,3.376249
	C41.354595,3.002946 50.706577,3.002702 60.526623,3.004698
	C62.956291,10.721653 69.744034,12.818007 76.037285,16.058207
	C75.166412,18.369085 74.078857,20.364048 72.816055,22.666016
	C69.157234,24.635555 65.673668,26.298086 61.862991,27.968147
	C61.530231,21.261747 60.746830,14.876250 54.083801,10.656657
z" fill="#FEFDFD" opacity="1.000000"
    stroke="none"/>
  <path d="
M213.721741,46.986359
	C210.307358,47.005505 207.352188,47.005505 203.700455,47.005505
	C205.990646,39.553951 207.890564,32.574963 210.417999,25.831146
	C210.914932,24.505201 213.835052,24.087416 215.713226,23.215698
	C215.713226,31.503517 215.734863,38.714085 215.648087,45.923347
	C215.643814,46.277138 214.691696,46.619518 213.721741,46.986359
z" fill="#FDFAF6" opacity="1.000000"
    stroke="none"/>
  <path d="
M148.143158,37.969410
	C148.897095,32.505379 149.730637,27.481890 150.640869,21.996195
	C152.820526,21.996195 154.759323,21.987017 156.698029,21.997868
	C163.262756,22.034611 164.993057,23.203140 165.133621,27.679722
	C165.359192,34.863884 162.417603,38.860123 156.446594,39.051392
	C153.714981,39.138897 150.964630,38.641880 148.143158,37.969410
z" fill="#FEFCF9" opacity="1.000000"
    stroke="none"/>
  <path d="
M84.070007,57.977638
	C83.844658,55.142635 83.160591,52.252838 83.491318,49.484261
	C84.140480,44.050007 84.875725,38.534496 86.490555,33.336960
	C87.717308,29.388538 90.360214,25.880112 92.684967,22.029499
	C93.159546,21.954411 93.322174,22.025734 93.789520,22.483263
	C94.656418,23.672976 95.116638,24.577480 95.796791,25.264126
	C101.597961,31.120672 102.276337,38.087048 99.960098,45.518414
	C97.559647,53.219975 91.404739,56.420124 84.070007,57.977638
z" fill="#FAF9F8" opacity="1.000000"
    stroke="none"/>
  <path d="
M84.202057,58.179924
	C91.404739,56.420124 97.559647,53.219975 99.960098,45.518414
	C102.276337,38.087048 101.597961,31.120672 95.796791,25.264126
	C95.116638,24.577480 94.656418,23.672976 94.050468,22.536720
	C102.117043,20.001814 105.906914,22.653381 104.981285,30.720987
	C104.107895,38.333363 102.482330,45.884289 100.767815,53.366039
	C99.728935,57.899525 92.047203,63.218182 85.550491,59.676414
	C84.897957,59.157597 84.616028,58.769905 84.202057,58.179924
z" fill="#FEFCF9" opacity="1.000000"
    stroke="none"/>
  <path d="
M33.356396,59.137604
	C30.586983,59.214928 28.132563,59.386589 25.755196,59.035889
	C24.771244,58.890747 23.952332,57.626797 23.045362,56.436447
	C24.112549,50.161980 25.192734,44.322735 26.809372,38.388859
	C30.269026,47.843922 31.732016,48.979935 41.145248,49.009487
	C40.821564,53.950466 38.535877,57.432892 33.356396,59.137604
z" fill="#FAF9F8" opacity="1.000000"
    stroke="none"/>
  <path d="
M41.233082,48.677471
	C31.732016,48.979935 30.269026,47.843922 27.031454,38.077618
	C26.810600,36.833160 26.904114,35.805317 27.415466,34.346313
	C32.398048,29.267384 37.735535,27.807295 43.959923,30.005840
	C43.813995,31.784906 43.668072,33.563972 42.897552,35.673389
	C38.854595,35.687672 35.992699,36.120003 36.017921,40.554893
	C36.040932,44.600571 38.530174,45.362160 41.880909,45.006424
	C41.694244,46.119434 41.507580,47.232445 41.233082,48.677471
z" fill="#FFFEFE" opacity="1.000000"
    stroke="none"/>
  <path d="
M44.012169,29.625595
	C37.735535,27.807295 32.398048,29.267384 27.493717,33.965633
	C27.778101,30.138134 28.402071,26.260160 29.006716,22.502304
	C38.550159,20.738918 43.763306,23.406017 44.012169,29.625595
z" fill="#F8F4EF" opacity="1.000000"
    stroke="none"/>
  <path d="
M42.014160,44.619602
	C38.530174,45.362160 36.040932,44.600571 36.017921,40.554893
	C35.992699,36.120003 38.854595,35.687672 42.706451,36.006767
	C42.809097,38.750793 42.478256,41.491787 42.014160,44.619602
z" fill="#FAF9F8" opacity="1.000000"
    stroke="none"/>
  <path d="
M407.689240,24.348713
	C409.217804,24.992989 410.578247,25.982174 411.938690,26.971367
	C410.418854,28.288612 408.899017,29.605850 406.964233,30.881069
	C406.873260,28.790573 407.197205,26.742096 407.689240,24.348713
z" fill="#FAF9F8" opacity="1.000000"
    stroke="none"/>
</svg>